<svg width="29" height="28" viewBox="0 0 29 28" fill="none" xmlns="http://www.w3.org/2000/svg">
<mask id="mask0_398_10805" style="mask-type:alpha" maskUnits="userSpaceOnUse" x="0" y="0" width="29" height="28">
<rect x="0.5" width="28" height="28" fill="#D9D9D9"/>
</mask>
<g mask="url(#mask0_398_10805)">
<mask id="mask1_398_10805" style="mask-type:alpha" maskUnits="userSpaceOnUse" x="2" y="2" width="25" height="24">
<rect x="2.5" y="2" width="24" height="24" fill="#D9D9D9"/>
</mask>
<g mask="url(#mask1_398_10805)">
<path d="M16.6634 22.6365L13.8942 19.8672C13.7558 19.7288 13.6865 19.5615 13.6865 19.3653C13.6865 19.1692 13.7641 18.9935 13.9192 18.8384C14.0641 18.6936 14.2397 18.6186 14.4461 18.6134C14.6525 18.6083 14.8282 18.6833 14.973 18.8384L17.2961 21.1308L22.4481 15.9788C22.5865 15.8404 22.7564 15.7711 22.9577 15.7711C23.1589 15.7711 23.3371 15.8487 23.4923 16.0038C23.6474 16.1589 23.7224 16.3397 23.7173 16.5461C23.7121 16.7525 23.632 16.9333 23.4769 17.0884L17.9288 22.6365C17.7583 22.807 17.5474 22.8922 17.2961 22.8922C17.0448 22.8922 16.8339 22.807 16.6634 22.6365ZM6.8077 21.5C6.30898 21.5 5.88303 21.3233 5.52983 20.9701C5.17661 20.6169 5 20.191 5 19.6922V8.3077C5 7.80898 5.17661 7.38302 5.52983 7.02982C5.88303 6.67661 6.30898 6.5 6.8077 6.5H22.1923C22.691 6.5 23.1169 6.67661 23.4701 7.02982C23.8233 7.38302 24 7.80898 24 8.3077V13.5961H22.0058L17.2961 18.3058L16.4134 17.4134C15.875 16.8814 15.2243 16.6154 14.4615 16.6154C13.6987 16.6154 13.0513 16.8814 12.5192 17.4134C11.9743 17.9583 11.6993 18.6064 11.6942 19.3577C11.6891 20.1089 11.9558 20.7538 12.4942 21.2922L12.7019 21.5H6.8077ZM6.49998 13.5961H22.5V10.4039H6.49998V13.5961Z" fill="#707070"/>
</g>
</g>
</svg>
