<svg width="25" height="24" viewBox="0 0 25 24" fill="none" xmlns="http://www.w3.org/2000/svg">
<mask id="mask0_398_10814" style="mask-type:alpha" maskUnits="userSpaceOnUse" x="0" y="0" width="25" height="24">
<rect x="0.5" width="24" height="24" fill="#D9D9D9"/>
</mask>
<g mask="url(#mask0_398_10814)">
<path d="M6.74965 20.75C6.53707 20.75 6.35898 20.6781 6.2154 20.5344C6.0718 20.3906 6 20.2125 6 20V5.40385C6 5.14777 6.08662 4.93311 6.25987 4.75987C6.43311 4.58662 6.64777 4.5 6.90385 4.5H13.348C13.5614 4.5 13.7519 4.56699 13.9196 4.70098C14.0873 4.83494 14.1929 5.00898 14.2365 5.22308L14.4961 6.5H19.0961C19.3522 6.5 19.5668 6.58626 19.7401 6.75877C19.9133 6.93127 20 7.14503 20 7.40003V14.6001C20 14.8551 19.9133 15.0688 19.7401 15.2413C19.5668 15.4137 19.3522 15.5 19.0961 15.5H14.6519C14.4385 15.5 14.248 15.433 14.0804 15.299C13.9127 15.165 13.8071 14.991 13.7635 14.7769L13.5039 13.5H7.49997V20C7.49997 20.2125 7.42807 20.3906 7.28425 20.5344C7.14045 20.6781 6.96225 20.75 6.74965 20.75Z" fill="#707070"/>
</g>
</svg>
