<svg width="25" height="24" viewBox="0 0 25 24" fill="none" xmlns="http://www.w3.org/2000/svg">
<mask id="mask0_398_10779" style="mask-type:alpha" maskUnits="userSpaceOnUse" x="0" y="0" width="25" height="24">
<rect x="0.5" width="24" height="24" fill="#D9D9D9"/>
</mask>
<g mask="url(#mask0_398_10779)">
<path d="M3.2017 19.3077C2.94562 19.3077 2.73095 19.2211 2.5577 19.0478C2.38447 18.8746 2.29785 18.6599 2.29785 18.4038V17.0846C2.29785 16.5692 2.43087 16.1093 2.6969 15.7049C2.96292 15.3004 3.31818 14.9857 3.7627 14.7608C4.71305 14.2959 5.66867 13.9376 6.62955 13.6856C7.59045 13.4337 8.64654 13.3078 9.79783 13.3078C10.9491 13.3078 12.0052 13.4337 12.9661 13.6856C13.927 13.9376 14.8826 14.2959 15.833 14.7608C16.2775 14.9857 16.6327 15.3004 16.8988 15.7049C17.1648 16.1093 17.2978 16.5692 17.2978 17.0846V18.4038C17.2978 18.6599 17.2112 18.8746 17.0379 19.0478C16.8647 19.2211 16.65 19.3077 16.394 19.3077H3.2017ZM18.9093 19.3077C19.032 19.2031 19.1274 19.0723 19.1956 18.9153C19.2637 18.7584 19.2978 18.5828 19.2978 18.3885V16.9616C19.2978 16.3052 19.1371 15.6796 18.8156 15.0848C18.4942 14.4901 18.0382 13.9798 17.4478 13.5539C18.1183 13.6539 18.7549 13.8087 19.3574 14.0183C19.96 14.2279 20.5349 14.4757 21.0824 14.7616C21.599 15.0372 21.9981 15.3621 22.2795 15.7362C22.5609 16.1103 22.7016 16.5188 22.7016 16.9616V18.4038C22.7016 18.6599 22.615 18.8746 22.4417 19.0478C22.2685 19.2211 22.0538 19.3077 21.7978 19.3077H18.9093ZM9.79783 11.6923C8.83534 11.6923 8.01139 11.3496 7.32598 10.6642C6.64056 9.97879 6.29785 9.15484 6.29785 8.19236C6.29785 7.22986 6.64056 6.40591 7.32598 5.72051C8.01139 5.03509 8.83534 4.69238 9.79783 4.69238C10.7603 4.69238 11.5843 5.03509 12.2697 5.72051C12.9551 6.40591 13.2978 7.22986 13.2978 8.19236C13.2978 9.15484 12.9551 9.97879 12.2697 10.6642C11.5843 11.3496 10.7603 11.6923 9.79783 11.6923ZM18.4324 8.19236C18.4324 9.15484 18.0896 9.97879 17.4042 10.6642C16.7188 11.3496 15.8949 11.6923 14.9324 11.6923C14.8196 11.6923 14.676 11.6795 14.5016 11.6539C14.3273 11.6282 14.1837 11.6 14.0709 11.5693C14.4652 11.0951 14.7683 10.5692 14.9801 9.99133C15.1919 9.4135 15.2978 8.81344 15.2978 8.19116C15.2978 7.56889 15.1898 6.97122 14.9738 6.39813C14.7577 5.82507 14.4568 5.29751 14.0709 4.81546C14.2145 4.76417 14.358 4.73084 14.5016 4.71546C14.6452 4.70007 14.7888 4.69238 14.9324 4.69238C15.8949 4.69238 16.7188 5.03509 17.4042 5.72051C18.0896 6.40591 18.4324 7.22986 18.4324 8.19236Z" fill="#707070"/>
</g>
</svg>
