<svg width="25" height="24" viewBox="0 0 25 24" fill="none" xmlns="http://www.w3.org/2000/svg">
<mask id="mask0_398_10821" style="mask-type:alpha" maskUnits="userSpaceOnUse" x="0" y="0" width="25" height="24">
<rect x="0.5" width="24" height="24" fill="#D9D9D9"/>
</mask>
<g mask="url(#mask0_398_10821)">
<path d="M9.49997 11.75H15.5C15.7125 11.75 15.8906 11.6781 16.0344 11.5343C16.1781 11.3904 16.25 11.2122 16.25 10.9997C16.25 10.7871 16.1781 10.609 16.0344 10.4654C15.8906 10.3218 15.7125 10.25 15.5 10.25H9.49997C9.28747 10.25 9.10936 10.3219 8.96563 10.4657C8.82188 10.6095 8.75 10.7877 8.75 11.0003C8.75 11.2129 8.82188 11.391 8.96563 11.5346C9.10936 11.6782 9.28747 11.75 9.49997 11.75ZM9.49997 7.74995H15.5C15.7125 7.74995 15.8906 7.67805 16.0344 7.53425C16.1781 7.39043 16.25 7.21223 16.25 6.99965C16.25 6.78705 16.1781 6.60896 16.0344 6.46538C15.8906 6.32179 15.7125 6.25 15.5 6.25H9.49997C9.28747 6.25 9.10936 6.3219 8.96563 6.4657C8.82188 6.60952 8.75 6.78772 8.75 7.0003C8.75 7.2129 8.82188 7.39099 8.96563 7.53458C9.10936 7.67816 9.28747 7.74995 9.49997 7.74995ZM19.9307 20.2057L16.194 15.3556C15.9326 15.0032 15.6128 14.7308 15.2346 14.5385C14.8564 14.3462 14.4448 14.25 14 14.25H5V4.3077C5 3.80257 5.175 3.375 5.525 3.025C5.875 2.675 6.30257 2.5 6.8077 2.5H18.1922C18.6974 2.5 19.125 2.675 19.475 3.025C19.825 3.375 20 3.80257 20 4.3077V19.6922C20 19.7847 19.9942 19.8726 19.9826 19.9559C19.9711 20.0391 19.9538 20.1224 19.9307 20.2057ZM6.8077 21.5C6.30257 21.5 5.875 21.325 5.525 20.975C5.175 20.625 5 20.1974 5 19.6922V15.75H14C14.2055 15.75 14.3956 15.7959 14.5703 15.8879C14.745 15.9799 14.894 16.1076 15.0173 16.2711L18.8807 21.3288C18.7782 21.3878 18.6682 21.431 18.5509 21.4586C18.4336 21.4862 18.314 21.5 18.1922 21.5H6.8077Z" fill="#707070"/>
</g>
</svg>
