<svg width="32" height="32" viewBox="0 0 32 32" fill="none" xmlns="http://www.w3.org/2000/svg">
<mask id="mask0_413_10939" style="mask-type:alpha" maskUnits="userSpaceOnUse" x="4" y="4" width="24" height="24">
<rect x="4" y="4" width="24" height="24" fill="#D9D9D9"/>
</mask>
<g mask="url(#mask0_413_10939)">
<path d="M9.99997 24.4998C9.59101 24.4998 9.23877 24.352 8.94327 24.0565C8.64776 23.761 8.5 23.4088 8.5 22.9998V13.9998C8.5 13.7601 8.55321 13.5354 8.65962 13.3258C8.76602 13.1162 8.91217 12.9422 9.09807 12.8037L15.0981 8.28446C15.2365 8.18318 15.3801 8.10882 15.5288 8.06138C15.6775 8.01395 15.8346 7.99023 16 7.99023C16.1654 7.99023 16.3224 8.01395 16.4711 8.06138C16.6198 8.10882 16.7634 8.18318 16.9019 8.28446L22.9019 12.8037C23.0878 12.9422 23.2339 13.1162 23.3403 13.3258C23.4467 13.5354 23.5 13.7601 23.5 13.9998V22.9998C23.5 23.4088 23.3522 23.761 23.0567 24.0565C22.7612 24.352 22.4089 24.4998 22 24.4998H17.9038V17.8075H14.0961V24.4998H9.99997Z" fill="#707070"/>
</g>
</svg>
