<svg width="25" height="24" viewBox="0 0 25 24" fill="none" xmlns="http://www.w3.org/2000/svg">
<mask id="mask0_398_10800" style="mask-type:alpha" maskUnits="userSpaceOnUse" x="0" y="0" width="25" height="24">
<rect x="0.5" width="24" height="24" fill="#D9D9D9"/>
</mask>
<g mask="url(#mask0_398_10800)">
<path d="M12.475 18.8077C12.657 18.8077 12.8163 18.7394 12.9529 18.6029C13.0894 18.4663 13.1577 18.307 13.1577 18.125V17.5961C13.9333 17.491 14.6355 17.1996 15.2644 16.7221C15.8932 16.2445 16.2077 15.5205 16.2077 14.55C16.2077 13.85 16.0012 13.2308 15.5884 12.6923C15.1756 12.1538 14.3692 11.6679 13.1692 11.2346C12.1179 10.8756 11.4198 10.5647 11.075 10.3019C10.7301 10.0391 10.5577 9.67178 10.5577 9.19998C10.5577 8.72818 10.7343 8.34484 11.0875 8.04998C11.4407 7.75509 11.9282 7.60765 12.55 7.60765C12.9218 7.60765 13.2471 7.6772 13.526 7.8163C13.8048 7.95542 14.0404 8.141 14.2327 8.37305C14.3545 8.52177 14.4955 8.62561 14.6558 8.68458C14.816 8.74354 14.9678 8.74097 15.1111 8.67688C15.3065 8.59996 15.4401 8.46855 15.5117 8.28265C15.5834 8.09677 15.5654 7.92626 15.4577 7.77113C15.191 7.39421 14.8602 7.08043 14.4654 6.8298C14.0705 6.57915 13.6512 6.43716 13.2077 6.40383V5.87498C13.2077 5.69293 13.1394 5.53363 13.0029 5.3971C12.8663 5.26057 12.707 5.1923 12.525 5.1923C12.3429 5.1923 12.1836 5.26057 12.0471 5.3971C11.9106 5.53363 11.8423 5.69293 11.8423 5.87498V6.40383C10.9897 6.56792 10.3349 6.91376 9.87788 7.44133C9.42083 7.96889 9.1923 8.55511 9.1923 9.19998C9.1923 9.95126 9.41987 10.5557 9.875 11.0134C10.3301 11.4711 11.0718 11.8846 12.1 12.2538C13.1628 12.6436 13.8888 12.9932 14.2779 13.3029C14.667 13.6125 14.8615 14.0282 14.8615 14.55C14.8615 15.1769 14.6352 15.6324 14.1827 15.9163C13.7301 16.2003 13.2192 16.3423 12.65 16.3423C12.175 16.3423 11.7456 16.2237 11.362 15.9865C10.9783 15.7493 10.657 15.4064 10.398 14.9577C10.2968 14.782 10.1602 14.6638 9.98843 14.6029C9.81664 14.542 9.64846 14.5439 9.48388 14.6087C9.30664 14.6735 9.17688 14.7965 9.09458 14.9779C9.01229 15.1593 9.01153 15.3327 9.0923 15.4981C9.37178 16.0583 9.73653 16.5064 10.1865 16.8423C10.6365 17.1782 11.1718 17.4128 11.7923 17.5461V18.125C11.7923 18.307 11.8606 18.4663 11.9971 18.6029C12.1336 18.7394 12.2929 18.8077 12.475 18.8077ZM12.5016 21.5C11.1877 21.5 9.95268 21.2506 8.79655 20.752C7.6404 20.2533 6.63472 19.5765 5.7795 18.7217C4.92427 17.8669 4.24721 16.8616 3.74833 15.706C3.24944 14.5504 3 13.3156 3 12.0017C3 10.6877 3.24933 9.45268 3.748 8.29655C4.24667 7.1404 4.92342 6.13472 5.77825 5.2795C6.6331 4.42427 7.63834 3.74721 8.79398 3.24833C9.94959 2.74944 11.1844 2.5 12.4983 2.5C13.8122 2.5 15.0473 2.74933 16.2034 3.248C17.3596 3.74667 18.3652 4.42342 19.2205 5.27825C20.0757 6.1331 20.7527 7.13834 21.2516 8.29398C21.7505 9.44959 22 10.6844 22 11.9983C22 13.3122 21.7506 14.5473 21.252 15.7034C20.7533 16.8596 20.0765 17.8652 19.2217 18.7205C18.3669 19.5757 17.3616 20.2527 16.206 20.7516C15.0504 21.2505 13.8156 21.5 12.5016 21.5Z" fill="#707070"/>
</g>
</svg>
